<?xml version="1.0" encoding="utf-8"?>
<!-- Generator: Adobe Illustrator 27.8.1, SVG Export Plug-In . SVG Version: 6.00 Build 0)  -->
<svg version="1.1" id="_Шар_2" xmlns="http://www.w3.org/2000/svg" xmlns:xlink="http://www.w3.org/1999/xlink" x="0px" y="0px"
	 viewBox="0 0 1919.5 246" style="enable-background:new 0 0 1919.5 246;" xml:space="preserve">
<style type="text/css">
	.st0{fill:#FFFFFF;}
</style>
<g id="_Шар_1-2">
	<g>
		<path class="st0" d="M0,52.7C13.6,63,33.9,78.2,59.6,96c47.1,32.7,71.1,49,89.2,52.9c56.1,11.8,79.1-34.5,157.3-44.3
			c97.2-12.2,129.8,50.6,243.4,47.7c79-2,81.8-32.9,166-45.2c133.8-19.6,174.5,58.5,324,59.4c167.4,1.1,227.9-76,373-71.2
			c142.9,4.8,178.9,82.9,284,82.3c100.1-0.5,175.1-70.6,223-124.8"/>
	</g>
	<rect class="st0" width="1919.5" height="53.5"/>
</g>
</svg>
